<?xml version="1.0" encoding="utf-8"?>
<!-- Generator: Adobe Illustrator 15.0.2, SVG Export Plug-In . SVG Version: 6.00 Build 0)  -->
<!DOCTYPE svg PUBLIC "-//W3C//DTD SVG 1.1//EN" "http://www.w3.org/Graphics/SVG/1.1/DTD/svg11.dtd">
<svg version="1.1" id="Calque_1" xmlns="http://www.w3.org/2000/svg" xmlns:xlink="http://www.w3.org/1999/xlink" x="0px" y="0px"
	 width="295px" height="59.221px" viewBox="0 0 295 59.221" enable-background="new 0 0 295 59.221" xml:space="preserve">
<g>
	<g>
		<path fill="#58585A" d="M207.517,57.116l-0.788-6.323h1.397l0.285,3.014c0.064,0.676,0.114,1.286,0.146,1.934h0.021
			c0.235-0.614,0.536-1.29,0.845-1.938l1.417-3.009h1.508l-3.264,6.323H207.517z"/>
		<path fill="#58585A" d="M211.836,57.116l0.869-4.586h1.34l-0.858,4.586H211.836z M213.54,51.932c-0.393,0-0.681-0.278-0.681-0.704
			c0-0.484,0.381-0.816,0.827-0.816c0.42,0,0.72,0.268,0.72,0.703c0,0.515-0.391,0.817-0.855,0.817H213.54z"/>
		<path fill="#58585A" d="M214.492,55.92c0.257,0.123,0.756,0.321,1.197,0.321c0.374,0,0.57-0.199,0.57-0.414
			c0-0.23-0.146-0.395-0.57-0.598c-0.528-0.263-0.965-0.645-0.965-1.22c0-0.953,0.834-1.584,2.016-1.584
			c0.531,0,0.955,0.114,1.169,0.24l-0.316,0.946c-0.189-0.081-0.517-0.196-0.919-0.196c-0.354,0-0.593,0.158-0.593,0.401
			c0,0.192,0.189,0.356,0.557,0.518c0.506,0.261,1.034,0.631,1.034,1.274c0,1.044-0.895,1.62-2.113,1.609
			c-0.57-0.009-1.126-0.16-1.397-0.362L214.492,55.92z"/>
		<path fill="#58585A" d="M218.223,57.116l0.877-4.586h1.335l-0.857,4.586H218.223z M219.931,51.932
			c-0.397,0-0.685-0.278-0.685-0.704c0-0.484,0.382-0.816,0.827-0.816c0.422,0,0.724,0.268,0.724,0.703
			c0,0.515-0.396,0.817-0.86,0.817H219.931z"/>
		<path fill="#58585A" d="M222.8,57.218c-1.169,0-1.953-0.766-1.953-1.889c0-1.591,1.108-2.903,2.74-2.903
			c1.236,0,1.949,0.849,1.949,1.889c0,1.677-1.152,2.904-2.726,2.904H222.8z M222.978,56.186c0.731,0,1.155-1.072,1.155-1.861
			c0-0.419-0.186-0.864-0.725-0.864c-0.776,0-1.167,1.124-1.167,1.838c0,0.538,0.27,0.887,0.726,0.887H222.978z"/>
		<path fill="#58585A" d="M225.954,57.116l0.582-3.102c0.109-0.577,0.185-1.07,0.245-1.484h1.187l-0.082,0.767h0.022
			c0.431-0.603,1.001-0.87,1.6-0.87c0.752,0,1.18,0.464,1.18,1.262c0,0.207-0.032,0.534-0.075,0.763l-0.506,2.665h-1.35l0.482-2.541
			c0.025-0.159,0.043-0.343,0.043-0.505c0-0.333-0.113-0.562-0.455-0.562c-0.447,0-0.952,0.562-1.148,1.574l-0.372,2.034H225.954z"
			/>
		<path fill="#58585A" d="M234.261,57.116c0.009-0.26,0.042-0.577,0.06-0.908h-0.018c-0.435,0.751-1.024,1.011-1.562,1.011
			c-0.822,0-1.382-0.641-1.382-1.588c0-1.551,1.029-3.205,3.282-3.205c0.549,0,1.129,0.104,1.506,0.229l-0.463,2.394
			c-0.109,0.588-0.206,1.5-0.184,2.067H234.261z M234.632,53.492c-0.104-0.021-0.215-0.042-0.362-0.042
			c-0.866,0-1.507,1.066-1.507,1.919c0,0.458,0.177,0.767,0.557,0.767c0.403,0,0.916-0.467,1.121-1.593L234.632,53.492z"/>
		<path fill="#58585A" d="M236.423,57.116l0.528-2.726c0.122-0.691,0.185-1.468,0.235-1.86h1.158
			c-0.018,0.311-0.042,0.62-0.082,0.953h0.04c0.313-0.622,0.819-1.057,1.448-1.057c0.095,0,0.179,0.013,0.258,0.013l-0.265,1.32
			c-0.054-0.011-0.128-0.011-0.208-0.011c-0.848,0-1.262,0.768-1.435,1.666l-0.314,1.702H236.423z"/>
		<path fill="#58585A" d="M241.778,52.529l0.287,1.991c0.063,0.49,0.106,0.809,0.145,1.11h0.021
			c0.103-0.294,0.207-0.593,0.403-1.087l0.834-2.014h1.425l-1.639,3.298c-0.609,1.219-1.158,2.044-1.769,2.622
			c-0.534,0.506-1.168,0.734-1.467,0.772l-0.299-1.146c0.21-0.072,0.517-0.186,0.777-0.371c0.31-0.219,0.57-0.486,0.753-0.795
			c0.029-0.058,0.029-0.126,0.013-0.218l-0.901-4.162H241.778z"/>
		<path fill="#58585A" d="M250.295,56.855c-0.53,0.271-1.199,0.363-1.707,0.363c-1.314,0-1.983-0.743-1.983-1.941
			c0-1.391,1.012-2.851,2.672-2.851c0.924,0,1.594,0.527,1.594,1.381c0,1.16-1.138,1.584-2.977,1.529c0,0.138,0.05,0.344,0.145,0.48
			c0.177,0.226,0.486,0.348,0.879,0.348c0.494,0,0.919-0.114,1.283-0.289L250.295,56.855z M249.602,53.802
			c0-0.228-0.189-0.397-0.499-0.397c-0.627,0-0.979,0.528-1.072,0.951c1.046,0.012,1.571-0.134,1.571-0.549V53.802z"/>
		<path fill="#58585A" d="M251.161,57.116l0.58-3.102c0.112-0.577,0.187-1.07,0.249-1.484h1.186l-0.082,0.767h0.021
			c0.431-0.603,1.001-0.87,1.6-0.87c0.752,0,1.179,0.464,1.179,1.262c0,0.207-0.032,0.534-0.074,0.763l-0.507,2.665h-1.35
			l0.481-2.541c0.026-0.159,0.042-0.343,0.042-0.505c0-0.333-0.11-0.562-0.454-0.562c-0.444,0-0.95,0.562-1.146,1.574l-0.374,2.034
			H251.161z"/>
		<path fill="#58585A" d="M256.742,57.757c0.257,0.143,0.806,0.246,1.198,0.246c0.68,0,1.177-0.298,1.375-1.22l0.072-0.391h-0.022
			c-0.351,0.464-0.762,0.681-1.311,0.681c-0.909,0-1.459-0.729-1.468-1.64c-0.011-1.51,1.075-3.007,3.07-3.007
			c0.65,0,1.209,0.125,1.7,0.322l-0.696,3.78c-0.158,0.834-0.419,1.589-0.964,2.035c-0.494,0.393-1.164,0.518-1.773,0.518
			c-0.613,0-1.181-0.114-1.501-0.296L256.742,57.757z M259.893,53.542c-0.104-0.042-0.299-0.081-0.484-0.081
			c-0.816,0-1.397,0.907-1.397,1.769c0,0.473,0.207,0.813,0.616,0.813c0.438,0,0.884-0.508,1.029-1.27L259.893,53.542z"/>
		<path fill="#58585A" d="M261.678,57.116l0.874-4.586h1.341l-0.867,4.586H261.678z M263.386,51.932
			c-0.392,0-0.688-0.278-0.688-0.704c0-0.484,0.388-0.816,0.826-0.816c0.421,0,0.721,0.268,0.721,0.703
			c0,0.515-0.393,0.817-0.849,0.817H263.386z"/>
		<path fill="#58585A" d="M264.164,57.116l0.582-3.102c0.11-0.577,0.186-1.07,0.246-1.484h1.187l-0.082,0.767h0.021
			c0.432-0.603,1.003-0.87,1.601-0.87c0.752,0,1.182,0.464,1.182,1.262c0,0.207-0.034,0.534-0.077,0.763l-0.505,2.665h-1.351
			l0.483-2.541c0.027-0.159,0.043-0.343,0.043-0.505c0-0.333-0.114-0.562-0.456-0.562c-0.445,0-0.953,0.562-1.148,1.574
			l-0.372,2.034H264.164z"/>
		<path fill="#58585A" d="M273.28,56.855c-0.531,0.271-1.201,0.363-1.707,0.363c-1.313,0-1.984-0.743-1.984-1.941
			c0-1.391,1.012-2.851,2.668-2.851c0.929,0,1.597,0.527,1.597,1.381c0,1.16-1.133,1.584-2.973,1.529c0,0.138,0.05,0.344,0.144,0.48
			c0.179,0.226,0.489,0.348,0.88,0.348c0.495,0,0.919-0.114,1.281-0.289L273.28,56.855z M272.585,53.802
			c0-0.228-0.185-0.397-0.495-0.397c-0.633,0-0.981,0.528-1.077,0.951c1.047,0.012,1.571-0.134,1.571-0.549V53.802z"/>
		<path fill="#58585A" d="M277.98,56.855c-0.535,0.271-1.198,0.363-1.704,0.363c-1.311,0-1.992-0.743-1.992-1.941
			c0-1.391,1.012-2.851,2.672-2.851c0.931,0,1.594,0.527,1.594,1.381c0,1.16-1.129,1.584-2.968,1.529
			c0,0.138,0.043,0.344,0.139,0.48c0.182,0.226,0.492,0.348,0.883,0.348c0.499,0,0.919-0.114,1.284-0.289L277.98,56.855z
			 M277.289,53.802c0-0.228-0.186-0.397-0.495-0.397c-0.63,0-0.984,0.528-1.084,0.951c1.052,0.012,1.58-0.134,1.58-0.549V53.802z"/>
		<path fill="#58585A" d="M278.838,57.116l0.522-2.726c0.124-0.691,0.191-1.468,0.233-1.86h1.169
			c-0.021,0.311-0.053,0.62-0.085,0.953h0.032c0.32-0.622,0.827-1.057,1.458-1.057c0.093,0,0.174,0.013,0.25,0.013l-0.261,1.32
			c-0.053-0.011-0.131-0.011-0.207-0.011c-0.855,0-1.262,0.768-1.437,1.666l-0.318,1.702H278.838z"/>
		<path fill="#58585A" d="M282.315,57.116l0.877-4.586h1.34l-0.867,4.586H282.315z M284.026,51.932
			c-0.397,0-0.689-0.278-0.689-0.704c0-0.484,0.391-0.816,0.825-0.816c0.422,0,0.723,0.268,0.723,0.703
			c0,0.515-0.393,0.817-0.849,0.817H284.026z"/>
		<path fill="#58585A" d="M284.804,57.116l0.578-3.102c0.113-0.577,0.189-1.07,0.249-1.484h1.186l-0.081,0.767h0.022
			c0.432-0.603,1-0.87,1.6-0.87c0.752,0,1.179,0.464,1.179,1.262c0,0.207-0.033,0.534-0.073,0.763l-0.507,2.665h-1.35l0.481-2.541
			c0.024-0.159,0.043-0.343,0.043-0.505c0-0.333-0.111-0.562-0.455-0.562c-0.443,0-0.949,0.562-1.146,1.574l-0.375,2.034H284.804z"
			/>
		<path fill="#58585A" d="M290.385,57.757c0.257,0.143,0.806,0.246,1.197,0.246c0.681,0,1.178-0.298,1.375-1.22l0.073-0.391h-0.022
			c-0.351,0.464-0.761,0.681-1.311,0.681c-0.908,0-1.458-0.729-1.468-1.64c-0.011-1.51,1.076-3.007,3.072-3.007
			c0.647,0,1.208,0.125,1.699,0.322l-0.694,3.78c-0.162,0.834-0.421,1.589-0.967,2.035c-0.495,0.393-1.166,0.518-1.775,0.518
			c-0.618,0-1.179-0.114-1.5-0.296L290.385,57.757z M293.536,53.542c-0.103-0.042-0.3-0.081-0.485-0.081
			c-0.816,0-1.397,0.907-1.397,1.769c0,0.473,0.208,0.813,0.62,0.813c0.436,0,0.881-0.508,1.027-1.27L293.536,53.542z"/>
	</g>
	<g>
		<path fill="#F29400" d="M25.207,50.428c-0.325,0.151-0.694,0.264-1.03,0.264h-8.472c-0.877,0-1.51-0.522-1.264-1.153
			c0.278-0.755,0.524-1.524,0.813-2.273c0.17-0.465,0.478-0.824,0.939-1.085c0.461-0.279,0.922-0.412,1.41-0.412h8.003
			c0.55,0,0.886,0.11,1.211,0.339l0.09-0.262c0.172-0.449-0.335-0.786-0.921-0.786H18.48l-0.279-2.115h9.8
			c1.024,0,1.734,0.373,2.191,0.918c0.356,0.43,0.648,1.03,0.431,1.612l-1.935,5.217h-3.578L25.207,50.428z M24.945,47.868h-5.913
			c-0.227,0-0.335,0.044-0.416,0.11c-0.154,0.137-0.213,0.207-0.213,0.237c-0.059,0.138,0.031,0.345,0.258,0.345h6.194
			c0.208,0,0.516-0.188,0.579-0.345c0.018-0.05,0.018-0.1-0.027-0.143C25.314,47.978,25.127,47.868,24.945,47.868z"/>
		<path fill="#F29400" d="M40.264,50.692h-6.709c-1.041,0-2.04-0.599-2.469-1.141c-0.262-0.339-0.334-0.727-0.199-1.122l1.24-3.352
			c0.28-0.724,1.447-1.434,2.387-1.795c0.597-0.223,1.166-0.337,1.7-0.337h8.509l-1.817,2.058h-5.751
			c-0.634,0-1.619,0.367-1.8,0.876l-0.614,1.632c-0.263,0.703,0.245,1.11,1.184,1.11h3.987c0.373,0,0.815-0.102,0.943-0.407
			c0.071-0.237-0.111-0.386-0.418-0.386h-2.212l-0.273-2.053h4.024c0.01,0,0.09,0,0.197,0.032l0.4,0.072
			c1.536,0.229,2.225,1.089,1.762,2.305c-0.117,0.335-0.306,0.655-0.569,0.956C42.984,50.057,41.629,50.692,40.264,50.692z"/>
		<path fill="#F29400" d="M56.262,48.483c-0.03-0.472-0.229-0.616-0.427-0.616h-6.585l-1.045,2.824h-3.437l1.79-4.846h9.522
			c0.335,0,0.83-0.149,0.939-0.43c0.09-0.25-0.249-0.413-0.569-0.413H49.17l-0.29-2.058h10.39c0.724,0,1.248,0.149,1.492,0.487
			c0.217,0.297,0.261,0.636,0.109,1.03l-0.552,1.517c-0.235,0.616-0.554,0.858-1.384,1.175c0.369,0.188,0.476,0.281,0.627,0.618
			c0.385,0.769,0.231,2.058,0.105,2.919H56.14C56.277,49.643,56.311,48.952,56.262,48.483z"/>
		<path fill="#F29400" d="M72.155,50.692h-8.018c-1.331,0-2.286-0.541-2.59-1.367c-0.154-0.392-0.169-0.765-0.033-1.122l1.047-2.806
			c0.426-1.162,2.497-2.452,4.188-2.452h7.876c0.415,0,0.845,0.089,1.302,0.263c0.508,0.167,0.876,0.449,1.157,0.843
			c0.271,0.411,0.307,0.935,0.072,1.552l-0.994,2.676c-0.155,0.445-0.479,0.84-0.968,1.215
			C74.488,50.044,73.133,50.692,72.155,50.692z M72.246,45.06h-4.62c-0.524,0-1.6,0.467-1.755,0.861l-0.533,1.458
			c-0.216,0.581,0.018,1.087,0.906,1.087h5.125c0.832,0,1.402-0.301,1.61-0.9l0.569-1.515C73.828,45.323,73.15,45.06,72.246,45.06z"
			/>
		<path fill="#F29400" d="M88.72,50.673H76.73l1.808-4.883h9.332c0.064,0,0.218-0.021,0.452-0.115
			c0.165-0.073,0.258-0.167,0.317-0.297c0.018-0.055,0-0.15-0.107-0.262c-0.073-0.094-0.227-0.153-0.46-0.153h-6.92l-0.307-2.033
			h9.929c0.984,0,1.843,0.782,1.581,1.493l-0.396,1.048c-0.218,0.598-0.586,0.805-1.303,1.143c0.471,0.3,1.103,0.671,0.885,1.235
			l-0.532,1.486c-0.064,0.159-0.199,0.347-0.39,0.533C90.159,50.354,89.454,50.673,88.72,50.673z M81.198,47.903l-0.245,0.657h6.402
			c0.257,0,0.425-0.141,0.506-0.318c0.091-0.229-0.017-0.338-0.388-0.338H81.198z"/>
		<path fill="#F29400" d="M103.459,50.692H95.44c-1.33,0-2.287-0.541-2.592-1.367c-0.154-0.392-0.168-0.765-0.031-1.122l1.047-2.806
			c0.427-1.162,2.498-2.452,4.188-2.452h7.874c0.417,0,0.845,0.089,1.303,0.263c0.507,0.167,0.877,0.449,1.157,0.843
			c0.272,0.411,0.307,0.935,0.071,1.552l-0.993,2.676c-0.156,0.445-0.481,0.84-0.969,1.215
			C105.792,50.044,104.437,50.692,103.459,50.692z M103.55,45.06h-4.621c-0.523,0-1.6,0.467-1.754,0.861l-0.533,1.458
			c-0.218,0.581,0.015,1.087,0.904,1.087h5.127c0.832,0,1.401-0.301,1.61-0.9l0.568-1.515
			C105.132,45.323,104.454,45.06,103.55,45.06z"/>
		<path fill="#F29400" d="M116.571,45.041h-6.881l1.826-2.11h8.338l-2.871,7.743h-2.519L116.571,45.041z M121.038,45.06
			l-2.106,5.632h-2.044l2.893-7.747h8.916l-1.826,2.115H121.038z"/>
		<path fill="#F29400" d="M130.018,42.945h3.083l-2.866,7.729h-3.088L130.018,42.945z"/>
		<path fill="#F29400" d="M135.622,50.692c-0.858,0-1.554-0.137-2.042-0.393c-0.479-0.254-0.815-0.557-0.94-0.935
			c-0.118-0.356-0.136-0.711-0.008-1.045l1.166-3.146c0.289-0.787,1.428-1.516,2.452-1.91c0.541-0.204,1.013-0.318,1.366-0.318
			h7.821l-1.819,2.058h-4.846c-0.598,0-1.611,0.488-1.767,0.918l-0.648,1.739c-0.181,0.469,0.295,0.864,0.954,0.864h7.428
			l-1.838,2.168H135.622z"/>
	</g>
	<g>
		<path fill="none" stroke="#57AB27" d="M251.342,2.042c3.08-0.593,6.343-0.909,9.724-0.909c18.551,0,33.59,9.584,33.59,21.411
			c0,11.833-15.039,21.409-33.59,21.409c-3.469,0-6.81-0.321-9.959-0.944"/>
		<path fill="none" stroke="#57AB27" d="M263.538,5.457c17.4,0.652,31.119,8.051,31.119,17.088c0,9.046-13.75,16.451-31.169,17.089"
			/>
		<path fill="none" stroke="#57AB27" d="M270.388,10.879c14.017,1.462,24.269,6.134,24.269,11.666
			c0,5.558-10.336,10.247-24.442,11.687"/>
		<path fill="none" stroke="#57AB27" d="M274.304,15.961c12.188,1.076,20.353,3.586,20.353,6.583c0,3.005-9.936,5.46-22.125,6.543"
			/>
		<path fill="none" stroke="#57AB27" d="M273.341,20.556c11.414,0.355,21.315,1.09,21.315,1.989c0,0.898-10.063,1.588-21.456,1.947"
			/>
		<path fill="none" stroke="#57AB27" d="M252.765,2.174c2.613-0.681,5.4-1.041,8.302-1.041c14.839,0,26.87,9.584,26.87,21.411
			c0,11.833-12.031,21.409-26.87,21.409c-2.965,0-5.813-0.377-8.479-1.082"/>
		<path fill="none" stroke="#57AB27" d="M254.455,2.543c2.047-0.91,4.281-1.409,6.611-1.409c10.197,0,18.476,9.584,18.476,21.411
			c0,11.833-8.279,21.409-18.476,21.409c-2.43,0-4.744-0.529-6.862-1.523"/>
		<path fill="none" stroke="#57AB27" d="M271.445,32.794c-0.132,0.453-0.278,0.891-0.426,1.312
			c-2.106,5.929-5.779,9.848-9.953,9.848c-1.785,0.001-3.47-0.711-4.984-1.979"/>
		<path fill="none" stroke="#57AB27" d="M256.226,2.994c1.48-1.197,3.118-1.86,4.84-1.86c4.16,0,7.822,3.893,9.931,9.783
			c0.15,0.434,0.303,0.89,0.438,1.346"/>
		<path fill="none" stroke="#57AB27" d="M263.487,39.669c-0.679,2.689-1.515,4.285-2.421,4.285c-0.749,0-1.445-1.066-2.045-2.949"/>
		<path fill="none" stroke="#57AB27" d="M259.039,4.012c0.599-1.832,1.291-2.878,2.028-2.878c0.927,0,1.792,1.684,2.47,4.517"/>
	</g>
	<g>
		<g>
			<path fill="#57AB27" d="M37.584,22.583c0.03-0.144-0.103-0.377-0.278-0.377c-0.243,0-0.41,0.097-0.659,0.377L24.304,36.681
				h-7.018l-4.598-14.242c0.031-0.233-0.209-0.514-0.484-0.514c-0.037,0-0.068,0-0.141,0.095c-0.167,0.143-0.271,0.282-0.271,0.377
				L8.293,34.676L0,36.864l4.939-17.549c0.762-2.665,3.458-4.625,6.229-5.512c0.833-0.276,1.552-0.463,2.176-0.463
				c3.803,0,5.221,2.241,6.125,5.13l3.315,10.551l9.51-10.592c2.524-2.805,5.013-5.089,8.781-5.089c2.838,0,4.946,1.636,5.329,4.06
				c0.14,0.746,0.067,1.448-0.141,2.151L41.98,34.676l-8.438,2.149L37.584,22.583z"/>
			<path fill="#57AB27" d="M69.846,35.928c-0.729,0.475-1.554,0.804-2.313,0.804H48.439c-1.969,0-3.387-1.541-2.833-3.416
				c0.624-2.241,1.176-4.482,1.832-6.722c0.387-1.351,1.073-2.429,2.114-3.219c1.031-0.793,2.074-1.213,3.178-1.213h18.013
				c1.248,0,2.007,0.327,2.736,1.028l0.208-0.794c0.376-1.311-0.761-2.335-2.081-2.335H54.699l-0.623-6.208h22.061
				c2.322,0,3.907,1.07,4.949,2.705c0.792,1.263,1.448,3.032,0.969,4.76l-4.355,15.413h-8.062L69.846,35.928z M69.26,28.373H55.948
				c-0.52,0-0.76,0.134-0.937,0.327c-0.344,0.416-0.479,0.607-0.479,0.699c-0.146,0.422,0.064,1.028,0.584,1.028h13.938
				c0.48,0,1.176-0.563,1.312-1.028c0.033-0.143,0.033-0.284-0.072-0.417C70.084,28.699,69.677,28.373,69.26,28.373z"/>
			<path fill="#57AB27" d="M93.153,21.557l-0.173,0.698h16.353l-4.082,6.022h-14l-2.385,8.455h-7.574l4.668-16.577
				c0.655-2.241,3.177-4.253,5.395-5.324c1.344-0.656,2.558-0.978,3.77-0.978h19.777l-1.728,6.067h-17.81
				C94.638,19.921,93.325,20.855,93.153,21.557z"/>
			<path fill="#57AB27" d="M143.189,28.506h-8.094l-2.386,8.45h-7.848l4.181-14.751h21.859c0.72,0,1.522-0.465,1.692-1.164
				c0.242-0.886-0.519-1.077,0.246-1.077h-24.208l-2.217-6.11h31.265c2.73,0,4.354,2.048,3.625,4.616l-1.585,5.512
				c-0.833,2.94-2.942,3.969-5.848,4.296l-0.417,0.095l11.036,15.777h-10.206L143.189,28.506z"/>
			<path fill="#57AB27" d="M184.644,36.732h-18.048c-3.006,0-5.147-1.594-5.84-4.064c-0.347-1.121-0.383-2.241-0.074-3.318
				l2.352-8.263c0.973-3.456,5.639-7.233,9.438-7.233h17.744c0.932,0,1.901,0.231,2.941,0.744c1.141,0.512,1.965,1.355,2.587,2.519
				c0.624,1.219,0.69,2.755,0.179,4.577l-2.25,7.894c-0.349,1.305-1.076,2.473-2.181,3.589
				C189.906,34.807,186.861,36.732,184.644,36.732z M184.851,20.062h-10.403c-1.181,0-3.601,1.401-3.942,2.566l-1.208,4.294
				c-0.488,1.728,0.027,3.22,2.036,3.22h11.552c1.864,0,3.147-0.887,3.627-2.66l1.286-4.479
				C188.414,20.855,186.893,20.062,184.851,20.062z"/>
			<path fill="#57AB27" d="M218.064,36.732h-22.733l4.077-14.477h7.785l-2.32,8.121h11.077c2.146,0,3.739-1.121,4.287-3.174
				l1.285-4.432c0.55-2.008-0.932-2.849-2.833-2.849h-19.044l-0.659-6.067h25.167c2.795,0,4.801,1.634,5.563,3.873
				c0.349,1.024,0.379,2.009,0.142,2.893l-2.767,9.757c-0.35,1.17-1.077,2.193-2.181,3.18
				C223.179,35.045,220.21,36.732,218.064,36.732z"/>
			<path fill="#57AB27" d="M253.716,35.928c-0.728,0.475-1.561,0.804-2.318,0.804h-19.086c-1.971,0-3.389-1.541-2.839-3.416
				c0.622-2.241,1.18-4.482,1.832-6.722c0.385-1.351,1.078-2.429,2.115-3.219c1.033-0.793,2.069-1.213,3.178-1.213h18.015
				c1.249,0,2.005,0.327,2.73,1.028l0.208-0.794c0.381-1.311-0.756-2.335-2.07-2.335h-16.911l-0.624-6.208h22.063
				c2.313,0,3.905,1.07,4.942,2.705c0.793,1.263,1.454,3.032,0.973,4.76l-4.357,15.413h-8.06L253.716,35.928z M253.127,28.373
				h-13.313c-0.519,0-0.765,0.134-0.933,0.327c-0.351,0.416-0.485,0.607-0.485,0.699c-0.138,0.422,0.07,1.028,0.588,1.028h13.933
				c0.485,0,1.173-0.563,1.318-1.028c0.029-0.143,0.029-0.284-0.076-0.417C253.955,28.699,253.544,28.373,253.127,28.373z"/>
		</g>
		<g>
			<path fill="#57AB27" d="M37.584,22.583c0.03-0.144-0.103-0.377-0.278-0.377c-0.243,0-0.41,0.097-0.659,0.377L24.304,36.681
				h-7.018l-4.598-14.242c0.031-0.233-0.209-0.514-0.484-0.514c-0.037,0-0.068,0-0.141,0.095c-0.167,0.143-0.271,0.282-0.271,0.377
				L8.293,34.676L0,36.864l4.939-17.549c0.762-2.665,3.458-4.625,6.229-5.512c0.833-0.276,1.552-0.463,2.176-0.463
				c3.803,0,5.221,2.241,6.125,5.13l3.315,10.551l9.51-10.592c2.524-2.805,5.013-5.089,8.781-5.089c2.838,0,4.946,1.636,5.329,4.06
				c0.14,0.746,0.067,1.448-0.141,2.151L41.98,34.676l-8.438,2.149L37.584,22.583z"/>
			<path fill="#57AB27" d="M69.846,35.928c-0.729,0.475-1.554,0.804-2.313,0.804H48.439c-1.969,0-3.387-1.541-2.833-3.416
				c0.624-2.241,1.176-4.482,1.832-6.722c0.387-1.351,1.073-2.429,2.114-3.219c1.031-0.793,2.074-1.213,3.178-1.213h18.013
				c1.248,0,2.007,0.327,2.736,1.028l0.208-0.794c0.376-1.311-0.761-2.335-2.081-2.335H54.699l-0.623-6.208h22.061
				c2.322,0,3.907,1.07,4.949,2.705c0.792,1.263,1.448,3.032,0.969,4.76l-4.355,15.413h-8.062L69.846,35.928z M69.26,28.373H55.948
				c-0.52,0-0.76,0.134-0.937,0.327c-0.344,0.416-0.479,0.607-0.479,0.699c-0.146,0.422,0.064,1.028,0.584,1.028h13.938
				c0.48,0,1.176-0.563,1.312-1.028c0.033-0.143,0.033-0.284-0.072-0.417C70.084,28.699,69.677,28.373,69.26,28.373z"/>
			<path fill="#57AB27" d="M93.153,21.557l-0.173,0.698h16.353l-4.082,6.022h-14l-2.385,8.455h-7.574l4.668-16.577
				c0.655-2.241,3.177-4.253,5.395-5.324c1.344-0.656,2.558-0.978,3.77-0.978h19.777l-1.728,6.067h-17.81
				C94.638,19.921,93.325,20.855,93.153,21.557z"/>
			<path fill="#57AB27" d="M143.189,28.506h-8.094l-2.386,8.45h-7.848l4.181-14.751h21.859c0.72,0,1.522-0.465,1.692-1.164
				c0.242-0.886-0.519-1.077,0.246-1.077h-24.208l-2.217-6.11h31.265c2.73,0,4.354,2.048,3.625,4.616l-1.585,5.512
				c-0.833,2.94-2.942,3.969-5.848,4.296l-0.417,0.095l11.036,15.777h-10.206L143.189,28.506z"/>
			<path fill="#57AB27" d="M184.644,36.732h-18.048c-3.006,0-5.147-1.594-5.84-4.064c-0.347-1.121-0.383-2.241-0.074-3.318
				l2.352-8.263c0.973-3.456,5.639-7.233,9.438-7.233h17.744c0.932,0,1.901,0.231,2.941,0.744c1.141,0.512,1.965,1.355,2.587,2.519
				c0.624,1.219,0.69,2.755,0.179,4.577l-2.25,7.894c-0.349,1.305-1.076,2.473-2.181,3.589
				C189.906,34.807,186.861,36.732,184.644,36.732z M184.851,20.062h-10.403c-1.181,0-3.601,1.401-3.942,2.566l-1.208,4.294
				c-0.488,1.728,0.027,3.22,2.036,3.22h11.552c1.864,0,3.147-0.887,3.627-2.66l1.286-4.479
				C188.414,20.855,186.893,20.062,184.851,20.062z"/>
			<path fill="#57AB27" d="M218.064,36.732h-22.733l4.077-14.477h7.785l-2.32,8.121h11.077c2.146,0,3.739-1.121,4.287-3.174
				l1.285-4.432c0.55-2.008-0.932-2.849-2.833-2.849h-19.044l-0.659-6.067h25.167c2.795,0,4.801,1.634,5.563,3.873
				c0.349,1.024,0.379,2.009,0.142,2.893l-2.767,9.757c-0.35,1.17-1.077,2.193-2.181,3.18
				C223.179,35.045,220.21,36.732,218.064,36.732z"/>
			<path fill="#57AB27" d="M253.716,35.928c-0.728,0.475-1.561,0.804-2.318,0.804h-19.086c-1.971,0-3.389-1.541-2.839-3.416
				c0.622-2.241,1.18-4.482,1.832-6.722c0.385-1.351,1.078-2.429,2.115-3.219c1.033-0.793,2.069-1.213,3.178-1.213h18.015
				c1.249,0,2.005,0.327,2.73,1.028l0.208-0.794c0.381-1.311-0.756-2.335-2.07-2.335h-16.911l-0.624-6.208h22.063
				c2.313,0,3.905,1.07,4.942,2.705c0.793,1.263,1.454,3.032,0.973,4.76l-4.357,15.413h-8.06L253.716,35.928z M253.127,28.373
				h-13.313c-0.519,0-0.765,0.134-0.933,0.327c-0.351,0.416-0.485,0.607-0.485,0.699c-0.138,0.422,0.07,1.028,0.588,1.028h13.933
				c0.485,0,1.173-0.563,1.318-1.028c0.029-0.143,0.029-0.284-0.076-0.417C253.955,28.699,253.544,28.373,253.127,28.373z"/>
		</g>
	</g>
	<g>
		<path fill="#57AB27" d="M269.801,13.773c0.387,0,0.761,0.099,1.13,0.296c0.371,0.202,0.654,0.487,0.861,0.855
			c0.208,0.368,0.31,0.759,0.31,1.16c0,0.398-0.101,0.776-0.303,1.141c-0.204,0.373-0.487,0.653-0.855,0.855
			c-0.361,0.202-0.746,0.304-1.143,0.304c-0.4,0-0.785-0.102-1.148-0.304s-0.653-0.482-0.856-0.855
			c-0.203-0.365-0.305-0.743-0.305-1.141c0-0.401,0.102-0.792,0.307-1.16c0.207-0.368,0.497-0.653,0.868-0.855
			C269.031,13.872,269.41,13.773,269.801,13.773z M269.801,14.16c-0.323,0-0.639,0.084-0.947,0.244
			c-0.307,0.171-0.549,0.402-0.721,0.711c-0.171,0.31-0.256,0.633-0.256,0.969c0,0.328,0.083,0.646,0.251,0.951
			s0.409,0.542,0.713,0.711c0.306,0.175,0.627,0.26,0.959,0.26c0.328,0,0.645-0.085,0.95-0.26c0.306-0.169,0.547-0.406,0.713-0.711
			c0.173-0.305,0.256-0.624,0.256-0.951c0-0.336-0.083-0.659-0.262-0.969c-0.168-0.309-0.409-0.541-0.717-0.711
			C270.434,14.244,270.119,14.16,269.801,14.16z M268.791,17.353v-2.475h0.846c0.293,0,0.501,0.019,0.636,0.069
			c0.13,0.042,0.233,0.125,0.312,0.241c0.075,0.108,0.117,0.229,0.117,0.36c0,0.177-0.068,0.341-0.195,0.473
			c-0.13,0.136-0.299,0.208-0.514,0.225c0.087,0.039,0.152,0.082,0.21,0.136c0.1,0.098,0.216,0.255,0.364,0.489l0.301,0.482h-0.484
			l-0.222-0.389c-0.171-0.308-0.314-0.499-0.421-0.575c-0.069-0.06-0.177-0.087-0.32-0.087h-0.231v1.051H268.791z M269.19,15.961
			h0.486c0.233,0,0.389-0.039,0.47-0.105c0.085-0.067,0.131-0.163,0.131-0.273c0-0.078-0.023-0.14-0.063-0.197
			c-0.04-0.063-0.096-0.102-0.173-0.13c-0.066-0.034-0.206-0.046-0.401-0.046h-0.45V15.961z"/>
	</g>
	<g>
		<path fill="#F29400" d="M148.496,42.887c0.345,0,0.675,0.083,0.992,0.253c0.321,0.185,0.578,0.423,0.756,0.751
			c0.175,0.326,0.268,0.666,0.268,1.01c0,0.355-0.091,0.676-0.263,0.999c-0.178,0.323-0.429,0.582-0.747,0.754
			c-0.321,0.174-0.653,0.26-1.006,0.26c-0.343,0-0.679-0.086-1.001-0.26c-0.323-0.172-0.566-0.431-0.749-0.754
			c-0.179-0.323-0.265-0.644-0.265-0.999c0-0.345,0.088-0.684,0.27-1.01c0.186-0.328,0.432-0.566,0.758-0.751
			C147.833,42.97,148.161,42.887,148.496,42.887z M148.496,43.224c-0.281,0-0.554,0.067-0.825,0.216
			c-0.267,0.14-0.479,0.348-0.63,0.612c-0.149,0.282-0.225,0.559-0.225,0.849c0,0.288,0.074,0.572,0.225,0.837
			c0.147,0.262,0.354,0.47,0.621,0.626c0.272,0.14,0.547,0.225,0.835,0.225c0.293,0,0.576-0.085,0.841-0.225
			c0.265-0.156,0.47-0.364,0.623-0.626c0.144-0.265,0.221-0.55,0.221-0.837c0-0.29-0.079-0.567-0.225-0.849
			c-0.154-0.264-0.365-0.472-0.632-0.612C149.056,43.291,148.778,43.224,148.496,43.224z M147.616,46.015v-2.168h0.748
			c0.251,0,0.431,0.016,0.547,0.063c0.117,0.038,0.205,0.112,0.272,0.209c0.071,0.099,0.101,0.207,0.101,0.32
			c0,0.151-0.053,0.294-0.168,0.417c-0.115,0.107-0.26,0.18-0.449,0.196c0.079,0.021,0.136,0.065,0.186,0.114
			c0.088,0.087,0.196,0.22,0.324,0.421l0.262,0.427h-0.431l-0.191-0.338c-0.149-0.272-0.272-0.437-0.363-0.51
			c-0.068-0.046-0.163-0.076-0.284-0.076h-0.207v0.924H147.616z M147.962,44.793h0.423c0.204,0,0.349-0.034,0.418-0.089
			c0.072-0.054,0.112-0.148,0.112-0.247c0-0.06-0.02-0.11-0.05-0.167c-0.037-0.043-0.092-0.087-0.151-0.116
			c-0.063-0.024-0.177-0.025-0.349-0.025h-0.402V44.793z"/>
	</g>
</g>
</svg>
